<svg width="572" height="552" viewBox="0 0 572 552" fill="none" xmlns="http://www.w3.org/2000/svg">
<path d="M293.298 137.436C291.292 162.93 292.468 188.586 295.85 213.944C314.29 352.174 375.508 230.738 351.988 113.208" stroke="#9C6644" stroke-width="32" stroke-linecap="round" stroke-linejoin="round"/>
<path d="M377.072 95.0959C398.406 81.1399 544.622 -21.9185 555.208 30.9907C566.714 88.4799 449.402 145.316 419.174 183.08C352.828 265.966 366.74 410.38 403.864 503.142" stroke="#9C6644" stroke-width="32" stroke-linecap="round" stroke-linejoin="round"/>
<path d="M263.514 221.334C207.536 303.322 171.576 393.866 152.516 489.114" stroke="#9C6644" stroke-width="32" stroke-linecap="round" stroke-linejoin="round"/>
<path d="M260.966 380.726C286.514 357.392 351.408 376.014 336.242 416.432C326.44 442.55 299.43 468.718 278.828 486.564C271.504 492.908 262.446 499.488 253.31 503.142C251.182 503.992 245.312 504.074 246.93 505.692C250.602 509.36 341.782 481.936 346.448 500.592C348.57 509.076 279.514 529.526 271.172 531.196C227.81 539.862 176.114 538.416 138.484 513.342C130.128 507.776 127.45 494.94 120.62 490.392C119.778 489.83 48.1364 537.714 16 518.444" stroke="#9C6644" stroke-width="32" stroke-linecap="round" stroke-linejoin="round"/>
<path d="M395.25 107.862C396.434 111.604 399.438 114.512 401.91 117.476" stroke="#9C6644" stroke-width="32" stroke-linecap="round" stroke-linejoin="round"/>
<path d="M541.098 29.4928C587.38 23.5608 501.83 67.7118 538.012 31.5482" stroke="#9C6644" stroke-width="32" stroke-linecap="round" stroke-linejoin="round"/>
</svg>
