<svg width="386" height="448" viewBox="0 0 386 448" fill="none" xmlns="http://www.w3.org/2000/svg">
<path d="M85.5318 170.79C81.8578 208.448 59.8618 400.846 89.3118 425.384C101.918 435.882 163.464 430.186 179.574 430.186C204.492 430.186 268.244 440.79 280.444 410.718C301.456 358.926 288.404 236.702 288.404 179.696" stroke="#F0F0F0" stroke-width="32" stroke-linecap="round" stroke-linejoin="round"/>
<path d="M158.382 317.378C249.166 290.79 175.856 412.378 154.206 324.782" stroke="#F0F0F0" stroke-width="32" stroke-linecap="round" stroke-linejoin="round"/>
<path d="M146.932 417.488C161.21 351.696 196.418 348.592 212.398 415.384" stroke="#F0F0F0" stroke-width="32" stroke-linecap="round" stroke-linejoin="round"/>
<path d="M80.1978 32.7242C55.5358 29.2062 18.0298 20.2074 16.1418 43.9122C14.4598 65.0322 28.1298 190.14 36.7818 190.14C44.5278 190.14 92.1958 92.3842 93.5898 82.8622" stroke="#F0F0F0" stroke-width="32" stroke-linecap="round" stroke-linejoin="round"/>
<path d="M268.164 46.766C269.4 65.896 321.434 190.44 323.36 190.14C339.388 187.658 372.948 49.9 369.792 46.766C342.254 19.4522 305.772 34.82 275.174 34.82" stroke="#F0F0F0" stroke-width="32" stroke-linecap="round" stroke-linejoin="round"/>
<path d="M120.26 42.6039C160.766 8.89455 212.98 7.92334 256.042 35.6999" stroke="#F0F0F0" stroke-width="32" stroke-linecap="round" stroke-linejoin="round"/>
<path d="M146.092 153.86C146.994 143.434 147.048 132.594 147.77 122.418" stroke="#F0F0F0" stroke-width="32" stroke-linecap="round" stroke-linejoin="round"/>
<path d="M232.188 153.86C232.276 143.292 232.354 132.762 231.35 122.418" stroke="#F0F0F0" stroke-width="32" stroke-linecap="round" stroke-linejoin="round"/>
</svg>
