<?xml version="1.0" standalone="no"?><svg xmlns="http://www.w3.org/2000/svg" viewBox="0 0 1440 320"><path fill="#FFDC5C" fill-opacity="1" d="M0,224L40,229.3C80,235,160,245,240,229.3C320,213,400,171,480,170.7C560,171,640,213,720,218.7C800,224,880,192,960,165.3C1040,139,1120,117,1200,122.7C1280,128,1360,160,1400,176L1440,192L1440,320L1400,320C1360,320,1280,320,1200,320C1120,320,1040,320,960,320C880,320,800,320,720,320C640,320,560,320,480,320C400,320,320,320,240,320C160,320,80,320,40,320L0,320Z"></path></svg>